HIERARCHY
ROOT Hips
{
	OFFSET -0.001795 -0.223333 0.028219
	CHANNELS 6 Xposition Yposition Zposition Zrotation Yrotation Xrotation 
	JOINT LeftUpLeg
	{
		OFFSET 0.069520 -0.091406 -0.006815
		CHANNELS 3 Zrotation Yrotation Xrotation
		JOINT LeftLeg
		{
			OFFSET 0.034277 -0.375199 -0.004496
			CHANNELS 3 Zrotation Yrotation Xrotation
			JOINT LeftFoot
			{
				OFFSET -0.013596 -0.397961 -0.043693
				CHANNELS 3 Zrotation Yrotation Xrotation
				JOINT LeftToe
				{
					OFFSET 0.026358 -0.055791 0.119288
					CHANNELS 3 Zrotation Yrotation Xrotation
					End Site
					{
						OFFSET 0.000000 0.000000 0.000000
					}
				}
			}
		}
	}
	JOINT RightUpLeg
	{
		OFFSET -0.067670 -0.090522 -0.004320
		CHANNELS 3 Zrotation Yrotation Xrotation
		JOINT RightLeg
		{
			OFFSET -0.038290 -0.382569 -0.008850
			CHANNELS 3 Zrotation Yrotation Xrotation
			JOINT RightFoot
			{
				OFFSET 0.015774 -0.398415 -0.042312
				CHANNELS 3 Zrotation Yrotation Xrotation
				JOINT RightToe
				{
					OFFSET -0.025372 -0.048144 0.123348
					CHANNELS 3 Zrotation Yrotation Xrotation
					End Site
					{
						OFFSET 0.000000 0.000000 0.000000
					}
				}
			}
		}
	}
	JOINT Spine
	{
		OFFSET -0.002533 0.108963 -0.026696
		CHANNELS 3 Zrotation Yrotation Xrotation
		JOINT Spine1
		{
			OFFSET 0.005487 0.135180 0.001092
			CHANNELS 3 Zrotation Yrotation Xrotation
			JOINT Spine2
			{
				OFFSET 0.001457 0.052922 0.025425
				CHANNELS 3 Zrotation Yrotation Xrotation
				JOINT Neck
				{
					OFFSET -0.002778 0.213870 -0.042857
					CHANNELS 3 Zrotation Yrotation Xrotation
					JOINT Head
					{
						OFFSET 0.005152 0.064970 0.051349
						CHANNELS 3 Zrotation Yrotation Xrotation
						End Site
						{
							OFFSET 0.000000 0.000000 0.000000
						}
					}
				}
				JOINT LeftShoulder
				{
					OFFSET 0.078845 0.121749 -0.034090
					CHANNELS 3 Zrotation Yrotation Xrotation
					JOINT LeftArm
					{
						OFFSET 0.090977 0.030469 -0.008868
						CHANNELS 3 Zrotation Yrotation Xrotation
						JOINT LeftForeArm
						{
							OFFSET 0.259612 -0.012772 -0.027456
							CHANNELS 3 Zrotation Yrotation Xrotation
							JOINT LeftHand
							{
								OFFSET 0.249234 0.008986 -0.001171
								CHANNELS 3 Zrotation Yrotation Xrotation
								End Site
								{
									OFFSET 0.000000 0.000000 0.000000
								}
							}
						}
					}
				}
				JOINT RightShoulder
				{
					OFFSET -0.081759 0.118833 -0.038615
					CHANNELS 3 Zrotation Yrotation Xrotation
					JOINT RightArm
					{
						OFFSET -0.096012 0.032551 -0.009143
						CHANNELS 3 Zrotation Yrotation Xrotation
						JOINT RightForeArm
						{
							OFFSET -0.253742 -0.013329 -0.021401
							CHANNELS 3 Zrotation Yrotation Xrotation
							JOINT RightHand
							{
								OFFSET -0.255298 0.007772 -0.005559
								CHANNELS 3 Zrotation Yrotation Xrotation
								End Site
								{
									OFFSET 0.000000 0.000000 0.000000
								}
							}
						}
					}
				}
			}
		}
	}
}
MOTION
Frames: 10
Frame Time: 0.050000
0.151937 0.803448 0.127275 -0.213631 10.944485 -5.292436 20.197618 0.553716 -22.600430 -13.837391 3.114343 52.099042 12.887863 25.777466 -1.297498 0.000000 0.000000 0.000000 -18.941360 -3.200537 -27.143905 5.700106 -4.038948 50.129627 -5.130202 -11.841754 -4.472324 0.000000 0.000000 0.000000 -2.663191 -0.011088 -3.946180 11.301626 -15.146924 32.904899 -9.843103 3.733713 3.423354 1.976382 3.043593 -43.858813 0.000000 0.000000 0.000000 4.839449 22.247928 -5.194009 -91.472831 7.427715 -22.842089 -77.598227 -56.266942 47.463244 0.000000 0.000000 0.000000 -3.683160 -4.113665 -1.396702 87.519399 23.747436 15.624728 140.365960 66.136238 133.173948 0.000000 0.000000 0.000000 
0.157014 0.831123 0.120455 -1.512382 12.850152 -1.578834 22.531098 0.601293 -25.186994 -15.818934 3.677526 43.968979 12.077244 24.411362 -0.752357 0.000000 0.000000 0.000000 -18.031556 -3.063540 -26.980924 8.438803 -5.491661 43.744954 -6.770869 -16.385238 -0.477679 0.000000 0.000000 0.000000 -0.366867 0.117590 -5.745987 8.678477 -13.253648 33.366871 -9.211698 3.997536 1.387777 3.852284 2.729639 -46.425538 0.000000 0.000000 0.000000 6.358478 20.661518 -3.988867 -96.004077 -2.862595 -15.482871 -93.142530 -59.745454 63.227111 0.000000 0.000000 0.000000 -6.878592 -5.334147 -1.715573 91.747530 22.839853 17.281640 130.148656 71.818763 124.119689 0.000000 0.000000 0.000000 
0.172038 0.880319 0.108306 -2.503462 12.198726 -0.563949 21.409700 0.359882 -22.188518 -11.538207 1.774128 35.888144 11.130119 22.792153 8.352112 0.000000 0.000000 0.000000 -15.368887 -2.040702 -25.827936 10.740682 -6.572212 42.331482 -1.355620 -8.058740 20.576715 0.000000 0.000000 0.000000 0.547359 0.139978 -4.716475 9.204638 -13.855386 34.009519 -10.994454 3.744530 -3.154658 1.118105 3.431229 -43.687263 0.000000 0.000000 0.000000 11.064313 14.861177 -0.702850 -99.259636 -17.582511 -1.369408 -118.511467 -71.965114 101.487840 0.000000 0.000000 0.000000 -7.956134 -2.703782 -0.823044 92.193698 20.957003 16.010402 91.956398 75.624793 84.072000 0.000000 0.000000 0.000000 
0.178997 0.896256 0.104370 -1.003749 15.223620 1.077556 19.371495 -0.233072 -22.337991 -9.791632 0.721925 32.862357 10.544241 22.550976 17.881010 0.000000 0.000000 0.000000 -15.335093 -2.046057 -22.840586 9.965420 -5.986474 37.325316 2.530593 -4.868329 34.011655 0.000000 0.000000 0.000000 -1.078289 0.054325 -4.321266 8.805331 -14.603907 34.332331 -13.658705 4.281144 -5.995705 0.187019 3.926205 -45.615966 0.000000 0.000000 0.000000 14.451298 15.470355 0.893080 -104.606776 -24.875054 4.841239 -133.881520 -70.154545 117.175217 0.000000 0.000000 0.000000 -8.324852 -5.103578 -1.665357 96.824339 18.771821 16.940359 33.390026 74.356052 30.761722 0.000000 0.000000 0.000000 
0.192994 0.894824 0.103631 -0.264134 13.719756 0.993574 19.117016 -0.188204 -18.755290 -8.551767 0.601113 28.855669 8.731617 20.034854 17.685719 0.000000 0.000000 0.000000 -12.952271 -1.048828 -19.668268 10.445383 -6.075691 37.655870 -9.267908 -20.956805 10.621504 0.000000 0.000000 0.000000 -0.720957 0.056615 -2.934563 9.040148 -12.960317 30.591163 -15.048097 5.555454 -6.034888 -1.986758 4.554281 -44.143075 0.000000 0.000000 0.000000 11.544493 11.312714 1.048113 -102.855542 -36.464318 17.739401 150.607204 -79.550918 -147.478233 0.000000 0.000000 0.000000 -9.879278 -5.400018 -1.946297 96.790565 9.450855 8.663820 28.386272 63.780149 22.321085 0.000000 0.000000 0.000000 
0.199793 0.879598 0.105131 0.654220 16.922084 1.124832 17.930274 -0.559169 -18.870877 -8.632319 0.306550 27.825964 9.631458 21.406373 16.545787 0.000000 0.000000 0.000000 -15.339122 -1.674846 -17.271452 10.989419 -6.650679 35.648583 -9.271605 -21.247982 6.826276 0.000000 0.000000 0.000000 -1.107087 0.035128 -3.417770 11.327449 -16.985246 32.408408 -18.060616 5.277899 -10.217656 -0.517657 4.258233 -45.582415 0.000000 0.000000 0.000000 9.967275 10.507781 1.126019 -102.484878 -43.965867 26.239243 99.550235 -65.984034 -79.828118 0.000000 0.000000 0.000000 -12.821061 -8.094844 -2.602126 99.569576 1.872382 2.807819 24.350629 56.862576 16.136695 0.000000 0.000000 0.000000 
0.211958 0.847076 0.105280 1.222329 16.351594 0.656254 18.689951 -0.453738 -18.725199 -12.051577 1.342904 31.528184 11.204414 22.663035 4.750783 0.000000 0.000000 0.000000 -15.873448 -1.817044 -17.819254 9.949000 -6.896580 40.395649 -9.703079 -25.064690 -5.899961 0.000000 0.000000 0.000000 0.195265 0.055620 -2.590526 11.247477 -15.535407 29.705335 -18.051797 4.950051 -10.715795 -2.886296 4.772812 -41.635086 0.000000 0.000000 0.000000 8.188526 9.964078 0.602925 -96.145896 -44.869320 25.638612 103.697195 -51.962396 -70.152314 0.000000 0.000000 0.000000 -13.486191 -8.858010 -2.818887 96.756088 -7.427583 -6.456330 31.695900 53.811118 19.248024 0.000000 0.000000 0.000000 
0.216822 0.833279 0.103910 3.293958 15.575576 0.208568 17.400919 -0.447182 -18.835215 -13.883236 2.045368 36.330129 12.245662 24.229269 0.223076 0.000000 0.000000 0.000000 -18.901496 -2.588500 -18.811235 10.611859 -7.956292 45.332219 -9.509011 -25.356928 -10.273256 0.000000 0.000000 0.000000 -0.114953 0.030706 -1.418648 11.097470 -16.129813 31.874471 -18.626883 3.783677 -13.610304 -3.091710 4.618784 -41.044714 0.000000 0.000000 0.000000 7.203291 11.311471 -0.072180 -92.652752 -42.669082 23.350299 106.938423 -43.673709 -64.322562 0.000000 0.000000 0.000000 -14.490700 -10.974976 -2.850137 96.758633 -12.522183 -12.107474 38.938963 54.382820 22.635489 0.000000 0.000000 0.000000 
0.229518 0.827895 0.102918 3.984662 15.993256 -0.005707 17.180154 -0.498860 -16.875616 -15.790327 2.667909 35.061118 11.622481 22.585037 -5.006855 0.000000 0.000000 0.000000 -22.825280 -3.705383 -19.202256 11.238384 -8.612168 46.964540 -7.614480 -18.980326 -7.583551 0.000000 0.000000 0.000000 1.134779 0.073250 -2.681922 12.062155 -16.963003 31.258473 -20.457553 2.392824 -13.978589 -3.061866 4.517097 -38.197268 0.000000 0.000000 0.000000 4.682837 13.340184 -1.577421 -88.838649 -37.670537 18.263660 113.734951 -45.665682 -72.966129 0.000000 0.000000 0.000000 -12.368683 -11.267965 -2.973119 90.422879 -17.855057 -16.206078 53.428483 57.069301 33.250354 0.000000 0.000000 0.000000 
0.236334 0.828660 0.102854 4.517914 13.732582 0.253681 15.608409 -0.431950 -16.327399 -14.330967 2.511657 34.455915 11.894045 23.377327 -3.551538 0.000000 0.000000 0.000000 -23.378134 -3.547204 -19.614032 8.825604 -6.519386 47.575700 -4.960173 -10.866582 -10.243465 0.000000 0.000000 0.000000 3.551992 0.092744 -2.404793 10.253635 -13.148188 27.851116 -19.426943 0.060436 -11.670262 -2.205489 4.118829 -36.645366 0.000000 0.000000 0.000000 4.929124 15.920982 -2.491561 -85.015496 -32.636732 14.098526 117.325407 -49.858967 -79.648848 0.000000 0.000000 0.000000 -8.337989 -10.718808 -2.907874 82.642163 -19.886694 -17.793953 67.364065 54.934532 41.133418 0.000000 0.000000 0.000000 
